<svg version="1.1" xmlns="http://www.w3.org/2000/svg" xmlns:xlink="http://www.w3.org/1999/xlink" 
  viewBox="-16 -16 32 32"
  width="800" height="800"
>
<g fill="none" stroke="blue" stroke-width=".03">
  <animateTransform attributeName="transform" attributeType="XML"
    type="rotate" from="360 0 0" to="0 0 0"
    dur="2s" repeatCount="indefinite" />
      
  <!--circle shape-rendering="geometricPrecision" fill="black" cx="0" cy="0" r="0.1"/-->

  <circle shape-rendering="geometricPrecision" cx="0" cy="0.32" r="5"/>
  <circle shape-rendering="geometricPrecision" cx="-0.19" cy="0.26" r="5.2"/>
  <circle shape-rendering="geometricPrecision" cx="-0.3" cy="0.1" r="5.4"/>
  <circle shape-rendering="geometricPrecision" cx="-0.3" cy="-0.1" r="5.6"/>
  <circle shape-rendering="geometricPrecision" cx="-0.19" cy="-0.26" r="5.8"/>
  <circle shape-rendering="geometricPrecision" cx="0" cy="-0.32" r="6"/>
  <circle shape-rendering="geometricPrecision" cx="0.19" cy="-0.26" r="6.2"/>
  <circle shape-rendering="geometricPrecision" cx="0.3" cy="-0.1" r="6.4"/>
  <circle shape-rendering="geometricPrecision" cx="0.3" cy="0.1" r="6.6"/>
  <circle shape-rendering="geometricPrecision" cx="0.19" cy="0.26" r="6.8"/>
  <circle shape-rendering="geometricPrecision" cx="0" cy="0.32" r="7"/>
  <circle shape-rendering="geometricPrecision" cx="-0.19" cy="0.26" r="7.2"/>
  <circle shape-rendering="geometricPrecision" cx="-0.3" cy="0.1" r="7.4"/>
  <circle shape-rendering="geometricPrecision" cx="-0.3" cy="-0.1" r="7.6"/>
  <circle shape-rendering="geometricPrecision" cx="-0.19" cy="-0.26" r="7.8"/>
  <circle shape-rendering="geometricPrecision" cx="0" cy="-0.32" r="8"/>
  <circle shape-rendering="geometricPrecision" cx="0.19" cy="-0.26" r="8.2"/>
  <circle shape-rendering="geometricPrecision" cx="0.3" cy="-0.1" r="8.4"/>
  <circle shape-rendering="geometricPrecision" cx="0.3" cy="0.1" r="8.6"/>
  <circle shape-rendering="geometricPrecision" cx="0.19" cy="0.26" r="8.8"/>
  <circle shape-rendering="geometricPrecision" cx="0" cy="0.32" r="9"/>
  <circle shape-rendering="geometricPrecision" cx="-0.19" cy="0.26" r="9.2"/>
  <circle shape-rendering="geometricPrecision" cx="-0.3" cy="0.1" r="9.4"/>
  <circle shape-rendering="geometricPrecision" cx="-0.3" cy="-0.1" r="9.6"/>
  <circle shape-rendering="geometricPrecision" cx="-0.19" cy="-0.26" r="9.8"/>
  <circle shape-rendering="geometricPrecision" cx="0" cy="-0.32" r="10"/>
  <circle shape-rendering="geometricPrecision" cx="0.19" cy="-0.26" r="10.2"/>
  <circle shape-rendering="geometricPrecision" cx="0.3" cy="-0.1" r="10.4"/>
  <circle shape-rendering="geometricPrecision" cx="0.3" cy="0.1" r="10.6"/>
  <circle shape-rendering="geometricPrecision" cx="0.19" cy="0.26" r="10.8"/>
  <circle shape-rendering="geometricPrecision" cx="0" cy="0.32" r="11"/>
  <circle shape-rendering="geometricPrecision" cx="-0.19" cy="0.26" r="11.2"/>
  <circle shape-rendering="geometricPrecision" cx="-0.3" cy="0.1" r="11.4"/>
  <circle shape-rendering="geometricPrecision" cx="-0.3" cy="-0.1" r="11.6"/>
  <circle shape-rendering="geometricPrecision" cx="-0.19" cy="-0.26" r="11.8"/>
  <circle shape-rendering="geometricPrecision" cx="0" cy="-0.32" r="12"/>
  <circle shape-rendering="geometricPrecision" cx="0.19" cy="-0.26" r="12.2"/>
  <circle shape-rendering="geometricPrecision" cx="0.3" cy="-0.1" r="12.4"/>
  <circle shape-rendering="geometricPrecision" cx="0.3" cy="0.1" r="12.6"/>
  <circle shape-rendering="geometricPrecision" cx="0.19" cy="0.26" r="12.8"/>
  <circle shape-rendering="geometricPrecision" cx="0" cy="0.32" r="13"/>
  <circle shape-rendering="geometricPrecision" cx="-0.19" cy="0.26" r="13.2"/>
  <circle shape-rendering="geometricPrecision" cx="-0.3" cy="0.1" r="13.4"/>
  <circle shape-rendering="geometricPrecision" cx="-0.3" cy="-0.1" r="13.6"/>
  <circle shape-rendering="geometricPrecision" cx="-0.19" cy="-0.26" r="13.8"/>
  <circle shape-rendering="geometricPrecision" cx="0" cy="-0.32" r="14"/>
  <circle shape-rendering="geometricPrecision" cx="0.19" cy="-0.26" r="14.2"/>
  <circle shape-rendering="geometricPrecision" cx="0.3" cy="-0.1" r="14.4"/>
  <circle shape-rendering="geometricPrecision" cx="0.3" cy="0.1" r="14.6"/>
  <circle shape-rendering="geometricPrecision" cx="0.19" cy="0.26" r="14.8"/>
  <circle shape-rendering="geometricPrecision" cx="0" cy="0.32" r="15"/>

</g>
</svg> 

